<?xml version="1.0" encoding="UTF-8"?>
<svg width="140px" height="22px" viewBox="0 0 140 22" version="1.1" xmlns="http://www.w3.org/2000/svg" xmlns:xlink="http://www.w3.org/1999/xlink">
    <!-- Generator: Sketch 57.1 (83088) - https://sketch.com -->
    <title>Group 12</title>
    <desc>Created with Sketch.</desc>
    <g id="Symbols" stroke="none" stroke-width="1" fill="none" fill-rule="evenodd">
        <g id="Menu" transform="translate(0.000000, -9.000000)" fill="#35383E">
            <g id="Group-3">
                <g id="Group-12" transform="translate(0.000000, 9.000000)">
                    <polygon id="Fill-1" points="82.7517699 19.2927434 84.2415929 19.2927434 84.2415929 3.2379646 82.7517699 3.2379646"></polygon>
                    <polygon id="Fill-2" points="47.5744779 4.61368142 54.9554513 4.61368142 54.9554513 3.23784071 46.7394336 3.23784071 45.4831504 4.49412389 45.4831504 19.292 54.9554513 19.292 54.9554513 17.9161593 46.9735929 17.9161593 46.9735929 11.6774867 54.3136814 11.6774867 54.3136814 10.3474867 46.9735929 10.3474867 46.9735929 5.21456637"></polygon>
                    <path d="M68.0048761,3.23771681 L64.347531,3.23771681 L63.096823,4.48842478 L63.096823,19.2924956 L67.867354,19.2924956 C71.4224867,19.2924956 74.9540796,17.3888673 74.9540796,11.2418761 C74.9540796,5.69143363 71.5600088,3.23771681 68.0048761,3.23771681 M67.6381504,17.9160354 L64.587885,17.9160354 L64.587885,5.20824779 L65.1825752,4.61355752 L67.7756726,4.61355752 C71.2385044,4.61355752 73.3490354,7.0220531 73.3490354,11.2418761 C73.3490354,15.8290442 71.2620442,17.9160354 67.6381504,17.9160354" id="Fill-3"></path>
                    <polygon id="Fill-5" points="112.286628 4.61368142 119.629814 4.61368142 119.629814 3.23784071 111.451584 3.23784071 110.157513 4.53129204 110.157513 19.292 119.629814 19.292 119.629814 17.9161593 111.649195 17.9161593 111.649195 11.6774867 118.988044 11.6774867 118.988044 10.3474867 111.649195 10.3474867 111.649195 5.25111504"></polygon>
                    <polygon id="Fill-6" points="92.7073805 3.23771681 91.4665841 4.47789381 91.4665841 4.61355752 96.5127788 4.61355752 96.5127788 19.2924956 98.0032212 19.2924956 98.0032212 4.61355752 103.048796 4.61355752 103.048796 3.23771681"></polygon>
                    <path d="M132.680106,3.23771681 L129.05869,3.23771681 L127.771434,4.52559292 L127.771434,19.2924956 L132.541965,19.2924956 C136.097717,19.2924956 139.629929,17.3888673 139.629929,11.2418761 C139.629929,5.69143363 136.234619,3.23771681 132.680106,3.23771681 M132.312761,17.9160354 L129.262496,17.9160354 L129.262496,5.24541593 L129.894354,4.61355752 L132.450903,4.61355752 C135.914354,4.61355752 138.023027,7.0220531 138.023027,11.2418761 C138.023027,15.8290442 135.937274,17.9160354 132.312761,17.9160354" id="Fill-7"></path>
                    <g id="Group-19" transform="translate(0.238743, 0.577593)">
                        <path d="M32.7123009,0.53460177 L32.0717699,0.0885840708 L29.5511504,-3.55271368e-15 L28.8437168,0.33079646 L28.6863717,0.250884956 L27.3148673,0.0105309735 L26.6582301,1.1020354 L22.9637168,2.62097345 L19.6650442,3.34079646 L13.1364602,2.90159292 L11.9861062,2.79566372 L8.30584071,3.67840708 L5.67619469,5.75734513 L3.95778761,8.08964602 L4.54256637,9.77336283 L4.54442478,9.77831858 L3.74283186,11.779823 L0.372300885,13.7584071 L-1.77635684e-14,13.9764602 L-1.77635684e-14,14.4082301 L-1.77635684e-14,15.7976991 L-1.77635684e-14,16.1055752 L0.214955752,16.3248673 L3.12955752,19.3026549 L3.35132743,19.5293805 L3.66849558,19.5293805 L6.2640708,19.5293805 L6.43566372,19.5293805 L6.59053097,19.4544248 L7.18584071,19.1688496 L7.61327434,18.9638053 L7.61327434,18.489292 L7.61327434,17.4256637 L7.61327434,16.9858407 L7.23106195,16.769646 L6.77575221,16.5119469 L8.24637168,15.7351327 L10.2875221,17.9280531 L10.6325664,18.7222124 L12.7232743,20.5075221 L18.239646,20.5775221 L19.3844248,20.2919469 L19.8044248,20.8153982 L24.6393805,21.1672566 L27.6345133,20.329115 L27.6345133,19.4779646 L28.9409735,19.4779646 L30.1470796,18.730885 L30.1470796,16.6092035 L28.7074336,15.7630088 L26.9097345,15.1590265 L25.9755752,13.1253097 L25.8145133,10.8506195 L28.9979646,8.54929204 L29.719646,7.51415929 L31.389115,6.23 L35.0811504,4.93964602 L35.9211504,2.85327434 L35.9484071,1.37274336 L32.7123009,0.53460177 Z M6.86,17.4256637 L6.86,18.489292 L6.2640708,18.7754867 L3.66849558,18.7754867 L0.753893805,15.7976991 L0.753893805,14.4082301 L4.34681416,12.2995575 L4.92168142,10.8642478 L5.64088496,12.9351327 L7.71176991,15.159646 L7.71486726,15.1633628 L5.20415929,16.4890265 L6.86,17.4256637 Z M26.360885,15.769823 L28.3933628,16.4530973 L29.3938053,17.040354 L29.3938053,18.310885 L28.7266372,18.7234513 L27.6345133,18.7234513 L27.6345133,17.9237168 L26.7765487,17.1053982 L24.8493805,16.5243363 L24.4529204,16.5286726 L24.400885,16.4772566 L24.4386726,14.4230973 L24.8524779,12.4042478 L25.0624779,11.6175221 L25.1095575,11.5636283 L25.2328319,13.3154867 L26.360885,15.769823 Z M34.5093805,4.34123894 L31.0254867,5.55849558 L29.1676991,6.98761062 L28.4528319,8.01345133 L25.0946903,10.4417699 L24.379823,11.2514159 L24.1184071,12.2314159 L23.6860177,14.3400885 L23.6414159,16.7826549 L24.1431858,17.2862832 L24.7422124,17.279469 L26.3869027,17.7750442 L26.8806195,18.2464602 L26.8806195,19.7573451 L24.5625664,20.4059292 L20.1878761,20.0881416 L19.9227434,19.7573451 L19.8917699,18.5010619 L17.5910619,14.2923894 L17.5737168,14.1573451 L17.5910619,12.8738053 L15.1187611,13.2076991 L13.9541593,11.0519469 L13.2900885,11.41 L14.320885,13.3161062 L15.0072566,14.3815929 L16.3700885,16.9734513 L18.1925664,17.2497345 L18.5444248,17.4281416 L19.1515044,18.6082301 L19.1515044,19.5727434 L18.1510619,19.8230088 L13.0057522,19.7573451 L11.2545133,18.2625664 L10.9274336,17.5086726 L6.30123894,12.5374336 L4.80026549,8.21725664 L6.22380531,6.28575221 L8.64283186,4.37283186 L12.0412389,3.55761062 L13.0763717,3.65300885 L19.7220354,4.10026549 L23.1885841,3.34327434 L27.1754867,1.70415929 L27.6939823,0.842477876 L28.4453982,0.97380531 L28.7867257,1.14787611 L29.6775221,0.753893805 L31.8351327,0.842477876 L32.3920354,1.23026549 L33.9586726,1.6360177 L33.9586726,2.76097345 L34.9962832,3.1320354 L34.5093805,4.34123894 Z M16.8619469,14.529646 L17.9088496,16.4444248 L16.8600885,16.2852212 L15.5963717,13.9046018 L16.8253982,13.7379646 L16.8192035,14.200708 L16.8619469,14.529646 Z M35.1697345,2.70026549 L34.4022124,2.44876106 L34.4022124,1.75061947 L35.1839823,1.95380531 L35.1697345,2.70026549 Z" id="Fill-9"></path>
                        <polygon id="Fill-10" points="30.9167699 2.66012389 32.0045575 1.70428319 30.9167699 1.83189381"></polygon>
                        <polygon id="Fill-11" points="27.6942301 2.10142478 28.246177 2.69053982 28.355823 2.12620354 28.5280354 1.88089381 28.9542301 1.6969115 27.8794513 1.40390265"></polygon>
                    </g>
                </g>
            </g>
        </g>
    </g>
</svg>